<?xml version="1.0" encoding="UTF-8" standalone="no"?>
<svg
   xmlns:dc="http://purl.org/dc/elements/1.1/"
   xmlns:cc="http://creativecommons.org/ns#"
   xmlns:rdf="http://www.w3.org/1999/02/22-rdf-syntax-ns#"
   xmlns:svg="http://www.w3.org/2000/svg"
   xmlns="http://www.w3.org/2000/svg"
   id="svg8"
   version="1.1"
   viewBox="0 0 210 297"
   height="297mm"
   width="210mm">

  <g
     style="display:inline"
     id="layer1">
    <path
       transform="scale(0.26458333)"
       id="path4651"
       d=""
       style="fill:#fb9d1b;fill-opacity:1;stroke:#ff6600;stroke-width:0.17857143;stroke-opacity:0" />
    <path
       transform="scale(0.26458333)"
       id="path4667"
       d=""
       style="fill:#5c843c;fill-opacity:1;stroke:#ff6600;stroke-width:0.17857143;stroke-opacity:0" />
    <path
       transform="scale(0.26458333)"
       id="path4669"
       d=""
       style="fill:#5c843c;fill-opacity:1;stroke:#ff6600;stroke-width:0.35714287;stroke-opacity:0" />
    <path
       transform="scale(0.26458333)"
       id="path4671"
       d=""
       style="fill:#5c843c;fill-opacity:1;stroke:#ff6600;stroke-width:0.35714287;stroke-opacity:0" />
    <path
       transform="scale(0.26458333)"
       id="path4675"
       d=""
       style="fill:#5c843c;fill-opacity:1;stroke:#ff6600;stroke-width:0.17857143;stroke-opacity:0" />
    <path
       transform="scale(0.26458333)"
       id="path4677"
       d=""
       style="fill:#5c843c;fill-opacity:1;stroke:#ff6600;stroke-width:0.17857143;stroke-opacity:0" />
    <g
       transform="matrix(1.8728145,0,0,1.8728145,-435.27628,-98.536568)"
       id="g4808">
      <path
         style="color:#000000;font-style:normal;font-variant:normal;font-weight:normal;font-stretch:normal;font-size:medium;line-height:normal;font-family:sans-serif;font-variant-ligatures:normal;font-variant-position:normal;font-variant-caps:normal;font-variant-numeric:normal;font-variant-alternates:normal;font-feature-settings:normal;text-indent:0;text-align:start;text-decoration:none;text-decoration-line:none;text-decoration-style:solid;text-decoration-color:#000000;letter-spacing:normal;word-spacing:normal;text-transform:none;writing-mode:lr-tb;direction:ltr;text-orientation:mixed;dominant-baseline:auto;baseline-shift:baseline;text-anchor:start;white-space:normal;shape-padding:0;clip-rule:nonzero;display:inline;overflow:visible;visibility:visible;opacity:1;isolation:auto;mix-blend-mode:normal;color-interpolation:sRGB;color-interpolation-filters:linearRGB;solid-color:#000000;solid-opacity:1;vector-effect:none;fill:#000000;fill-opacity:1;fill-rule:nonzero;stroke:none;stroke-width:0.9880659;stroke-linecap:butt;stroke-linejoin:miter;stroke-miterlimit:4;stroke-dasharray:none;stroke-dashoffset:0;stroke-opacity:1;color-rendering:auto;image-rendering:auto;shape-rendering:auto;text-rendering:auto;enable-background:accumulate"
         d="m 310.5332,380.64648 -0.35351,0.70118 c 0,0 -2.81048,5.49269 -6.73242,19.15625 -3.92194,13.66352 -8.97498,35.52895 -13.52344,68.3789 l -0.0879,0.61328 0.61914,-0.0449 c 0,0 45.85613,-3.6624 73.39062,46.16602 l 0.53907,0.96679 0.36914,-1.04101 c 0,0 3.16298,-8.80165 13.63476,-19.27344 10.47183,-10.47182 28.23313,-22.56517 57.43164,-28.97461 l 0.36719,-0.0801 0.0234,-0.37695 c 0,0 2.86553,-39.40235 -16.46875,-84.51562 l -0.22852,-0.54493 -0.50195,0.32422 c 0,0 -2.9931,1.96485 -6.83594,6.57032 -3.76429,4.51128 -8.34778,11.67613 -11.87695,21.99023 -0.71917,-0.52063 -9.34796,-6.70675 -22.89258,-9.81836 -13.89602,-3.1923 -32.53466,-2.71164 -51.5332,11.10937 0.0442,-0.30122 0.0923,-0.26362 0.0957,-0.75976 0.008,-1.21346 -0.17612,-3.04538 -0.91406,-5.58008 -1.4759,-5.0694 -5.17495,-12.94646 -14.04102,-24.3457 z m 0.22266,2.03125 c 8.293,10.82707 11.94898,18.44422 13.33789,23.21485 0.71414,2.45291 0.87862,4.18625 0.87109,5.29297 -0.008,1.10672 -0.16992,1.53515 -0.16992,1.53515 l -0.54492,1.5586 1.32031,-0.99024 c 19.0708,-14.30309 37.69506,-14.66678 51.60742,-11.4707 13.91236,3.19608 23.05274,9.95898 23.05274,9.95898 l 0.55469,0.4043 0.21289,-0.64844 c 3.51507,-10.54529 8.17584,-17.70119 11.94531,-22.21875 3.4868,-4.17876 5.73397,-5.63678 6.11914,-5.89843 18.76422,44.27569 16.17353,82.4956 16.13672,83.01562 -29.10799,6.47286 -46.97383,18.58319 -57.51953,29.12891 -9.87075,9.87072 -13.02069,17.71396 -13.45703,18.83984 -27.25494,-48.36699 -71.39487,-46.05028 -73.21485,-45.93164 4.5191,-32.44384 9.51788,-54.17204 13.39844,-67.69141 3.7258,-12.98018 6.10993,-17.61964 6.34961,-18.09961 z"
         transform="scale(0.26458333)"
         id="path21" />
      <path
         style="fill:none;stroke:#000000;stroke-width:0;stroke-linecap:butt;stroke-linejoin:miter;stroke-miterlimit:4;stroke-dasharray:none;stroke-opacity:1"
         d="m 83.187639,120.60211 c 0,0 5.278573,0.26727 8.485807,3.40769 0,0 0.200451,-7.41673 -8.485807,-3.40769 z"
         id="path28" />
      <path
         style="fill:none;stroke:#000000;stroke-width:0;stroke-linecap:butt;stroke-linejoin:miter;stroke-miterlimit:4;stroke-dasharray:none;stroke-opacity:1"
         d="m 101.4956,124.21025 c 0,0 2.13816,-3.74177 7.81764,-3.60814 0,0 -7.48356,-4.00904 -7.81764,3.60814 z"
         id="path30" />
      <path
         style="fill:#ff0000;stroke:#000000;stroke-width:0;stroke-linecap:butt;stroke-linejoin:miter;stroke-miterlimit:4;stroke-dasharray:none;stroke-opacity:1"
         d="m 95.249999,134.47024 2.173364,-0.14174"
         id="path34" />
      <path
         style="fill:none;stroke:#000000;stroke-width:0;stroke-linecap:butt;stroke-linejoin:miter;stroke-miterlimit:4;stroke-dasharray:none;stroke-opacity:1"
         d="m 117.73958,123.41443 c 0,0 -0.56696,-16.15848 -6.14211,-24.946426 0,0 -5.57515,3.118306 -6.61458,7.559526 0,0 -8.787949,-4.91369 -17.386908,0.37798 0,0 0.755953,-1.51191 -6.047619,-8.409975 0,0 -3.401785,4.630205 -7.181547,27.970235 0,0 14.457589,1.7009 21.922619,13.51265"
         id="path42" />
      <g
         id="g47">
        <path
           id="path44"
           d="m 96.289433,139.47842 c 0,0 9.732887,-13.89062 27.781247,-16.25298 0,0 22.3006,-1.98437 32.60045,11.43379 0,0 -14.17411,-1.7009 -29.38765,11.24479 0,0 -13.70163,15.875 -27.686754,12.94568 0,0 -3.96875,-8.22098 -19.182291,-14.74107 0,0 -10.016369,-5.48065 -11.90625,-8.40997 0,0 -3.685268,0.56696 1.700892,6.14211 0,0 1.039435,1.32292 8.031995,8.69346 0,0 -0.283483,3.96875 -5.386161,2.17336 0,0 -16.461041,-13.12934 -12.852902,-34.91181 0,0 1.603617,-15.23436 17.506154,-24.588795 0,0 16.570711,-11.22532 39.422257,1.336348 0,0 12.2944,8.151717 15.10073,27.662397 0,0 -8.53792,-1.85891 -14.29157,1.2087"
           style="fill:none;stroke:#000000;stroke-width:0.26458332px;stroke-linecap:butt;stroke-linejoin:miter;stroke-opacity:1" />
      </g>
      <path
         style="fill:none;stroke:#000000;stroke-width:0;stroke-linecap:butt;stroke-linejoin:miter;stroke-miterlimit:4;stroke-dasharray:none;stroke-opacity:1"
         d="m 153.45833,133.05283 c 0,0 -4.53571,-6.23661 -21.07217,-8.88244 0,0 4.53572,1.6064 4.06324,2.26785 0,0 -12.09523,1.98438 -15.875,8.50447 0,0 6.89807,-0.56697 7.46503,1.5119 0,0 -7.18154,9.92188 -14.1741,13.98512 0,0 3.87425,-0.28348 16.81994,-10.48884 9.07143,-7.18155 22.77306,-6.89806 22.77306,-6.89806 z"
         id="path56" />
      <path
         style="fill:none;stroke:#000000;stroke-width:0;stroke-linecap:butt;stroke-linejoin:miter;stroke-miterlimit:4;stroke-dasharray:none;stroke-opacity:1"
         d="m 153.69457,134.70647 c 0,0 -18.52084,4.44122 -24.99368,12.52046 0,0 -6.4919,9.32293 -26.40348,15.60377"
         id="path65" />
      <path
         style="fill:none;stroke:#000000;stroke-width:0;stroke-linecap:butt;stroke-linejoin:miter;stroke-miterlimit:4;stroke-dasharray:none;stroke-opacity:1"
         d="m 99.596725,158.8497 c 0,0 -0.573371,-1.49802 2.700685,3.981"
         id="path67" />
      <path
         style="fill:none;stroke:#000000;stroke-width:0.26458332px;stroke-linecap:butt;stroke-linejoin:miter;stroke-opacity:1"
         d="m 156.67113,134.65923 c 0,0 -8.47018,0.2418 -23.23682,13.93936 0,0 -13.80485,16.58221 -28.35693,19.60602 0,0 -33.828868,8.59896 -55.751487,-29.19866 0,0 1.322917,-3.40178 5.291667,2.07887 0,0 8.976934,7.9375 10.299851,8.22098 0,0 3.023809,2.26786 5.480655,2.83482 0,0 -9.354911,-10.11086 -9.543899,-11.33928 0,0 -2.55134,-5.85863 -2.740328,-9.82738 0,0 1.322917,-1.79539 2.267858,0.75595"
         id="path69" />
      <path
         style="fill:none;stroke:#000000;stroke-width:0;stroke-linecap:butt;stroke-linejoin:miter;stroke-miterlimit:4;stroke-dasharray:none;stroke-opacity:1"
         d="m 67.846725,150.53423 c 0,0 -10.228979,-7.11068 -11.339285,-8.69346 0,0 -2.285134,-3.63228 -2.351952,-9.77948"
         id="path71" />
      <path
         style="fill:none;stroke:#000000;stroke-width:0;stroke-linecap:butt;stroke-linejoin:miter;stroke-miterlimit:4;stroke-dasharray:none;stroke-opacity:1"
         d="m 54.155487,132.06129 c 0,0 -1.570209,-3.04019 -0.734991,-3.37428 0,0 1.670435,-1.43657 3.474505,2.73952 0,0 1.837478,7.08264 2.53906,8.38558 0,0 6.268181,8.48167 8.412664,10.72212"
         id="path75" />
      <path
         style="color:#000000;font-style:normal;font-variant:normal;font-weight:normal;font-stretch:normal;font-size:medium;line-height:normal;font-family:sans-serif;font-variant-ligatures:normal;font-variant-position:normal;font-variant-caps:normal;font-variant-numeric:normal;font-variant-alternates:normal;font-feature-settings:normal;text-indent:0;text-align:start;text-decoration:none;text-decoration-line:none;text-decoration-style:solid;text-decoration-color:#000000;letter-spacing:normal;word-spacing:normal;text-transform:none;writing-mode:lr-tb;direction:ltr;text-orientation:mixed;dominant-baseline:auto;baseline-shift:baseline;text-anchor:start;white-space:normal;shape-padding:0;clip-rule:nonzero;display:inline;overflow:visible;visibility:visible;opacity:1;isolation:auto;mix-blend-mode:normal;color-interpolation:sRGB;color-interpolation-filters:linearRGB;solid-color:#000000;solid-opacity:1;vector-effect:none;fill:#fbaf28;fill-opacity:1;fill-rule:nonzero;stroke:none;stroke-width:0;stroke-linecap:butt;stroke-linejoin:miter;stroke-miterlimit:4;stroke-dasharray:none;stroke-dashoffset:0;stroke-opacity:1;color-rendering:auto;image-rendering:auto;shape-rendering:auto;text-rendering:auto;enable-background:accumulate"
         d="m 74.323289,95.922526 c 0,0 -4.383321,4.252284 -8.239305,15.266924 -3.855983,11.01464 -4.629791,25.78526 9.840145,41.56055 v 0 c -0.114071,-0.008 -0.311083,0.43941 0.640318,0.0458 l 0.845412,-0.60437 0.414749,-0.72341 c 0,0 0.400283,-0.77107 0.300733,-0.88081 -2.214265,-2.44093 -5.473631,-6.02796 -7.666908,-8.28671 -0.676469,-0.69666 -2.068206,-2.29051 -2.515187,-2.99118 -7.348676,-11.51959 -4.634285,-19.39097 -1.609262,-28.03198 3.832393,-10.94727 6.871652,-14.194844 6.871652,-14.194844 z"
         id="path103" />
      <path
         style="opacity:0.89499996;fill:#fb9d1b;fill-opacity:1;stroke:none;stroke-width:0;stroke-miterlimit:4;stroke-dasharray:none;stroke-opacity:0"
         d="m 381.49631,600.37583 c -4.18085,-0.65709 -4.01447,-0.51567 -9.30395,-7.90765 -4.68671,-6.54963 -15.59527,-17.12016 -24.62378,-23.86075 -10.66081,-7.95925 -19.97604,-13.53929 -33.5905,-20.12149 -12.47277,-6.03022 -23.72503,-11.25584 -34.86435,-18.70663 -8.78064,-5.87315 -17.05327,-13.78267 -18.59034,-16.12855 -2.13299,-3.25535 -12.87829,2.39165 -1.13806,16.35066 -5.25423,4.15093 15.15133,21.02567 26.61999,32.37269 2.88892,2.85828 3.71926,3.38217 4.58767,5.3534 1.64907,3.74328 -2.26243,6.10266 -3.36776,6.1507 -15.32822,0.66609 -46.45762,-74.26088 -46.63502,-85.78619 -0.098,-6.36971 0.27767,-15.62503 0.28331,-22.17949 0.008,-9.16132 2.92333,-16.94048 4.49367,-24.83968 4.4144,-20.95939 14.08015,-43.00451 27.17507,-62.43402 1.30704,-1.93932 2.20631,-3.91572 3.57988,-5.79925 2.08997,-2.86592 2.04513,-4.4003 4.27852,-7.11554 1.80693,-2.19678 2.53175,-4.97262 3.93143,-6.53051 5.00178,-5.56712 11.61301,-7.92703 18.15826,-11.00234 39.75258,-18.67793 88.47498,-16.14797 133.39058,6.92644 16.96738,8.71663 36.50058,32.27295 48.18898,58.11415 5.96717,13.19245 11.31625,30.93809 13.46057,44.65558 l 0.45113,2.88595 -6.64463,-0.87416 c -14.06012,-1.84974 -29.4708,-0.71817 -39.91525,2.93091 -2.85152,0.99626 -5.26117,1.73166 -5.35479,1.63423 -0.0936,-0.0974 -0.68556,-5.39433 -1.31545,-11.77088 -2.91711,-29.53101 -9.48653,-56.34131 -17.86131,-72.89339 -4.88973,-9.66416 -4.22825,-9.29782 -9.90573,-5.48595 -8.98367,6.03164 -17.25311,15.4544 -19.80071,22.56229 l -0.92803,2.58922 -2.92453,-1.29205 c -5.38689,-2.37993 -15.21868,-4.86348 -22.36749,-5.65011 -11.63346,-1.28012 -23.72165,0.71749 -34.30158,5.66844 -2.54658,1.19169 -4.71992,2.1667 -4.82965,2.1667 -0.10973,0 -0.41153,-0.84473 -0.67066,-1.87719 -0.62528,-2.49131 -4.76376,-8.914 -9.0869,-14.10236 -5.78597,-6.94396 -13.15945,-14.73473 -13.94549,-14.73473 -1.08844,0 -5.73476,10.58203 -8.83002,20.11048 -5.4902,16.90101 -11.7919,44.2363 -16.38778,71.08632 -1.1986,7.00247 -2.33527,13.43998 -2.52593,14.30556 -0.29749,1.35062 0.0339,1.63959 2.33716,2.03774 17.21856,2.97658 36.27172,10.61053 50.89504,20.3919 8.17988,5.47144 20.51778,17.23175 25.74272,24.5376 2.11916,2.96315 4.18916,5.38754 4.60001,5.38754 0.41085,0 2.16234,-1.77371 3.8922,-3.94157 4.54425,-5.69486 19.46105,-20.00958 26.15687,-25.1011 27.0977,-20.60521 58.69873,-32.39867 86.75411,-32.37652 33.80939,0.0267 66.76737,8.65435 88.61133,23.19648 6.84178,4.55475 16.56434,13.02835 19.20706,16.73972 l 1.38026,1.93839 -7.63503,0.14656 c -18.89739,0.36277 -40.12618,5.8887 -60.49219,15.74635 -18.842,9.11999 -32.58067,18.74388 -47.5,33.27359 -23.77696,23.15602 -47.59727,37.58749 -69.51314,42.11434 -6.70508,1.38497 -18.18985,1.94537 -23.32577,1.13817 z m 54.0726,-32.55085 c 10.80165,-4.0621 30.20715,-16.23325 49.4806,-31.03427 12.07962,-9.27653 20.02455,-14.66057 26.22307,-17.77058 16.29083,-8.17367 39.53158,-13.89661 60.75148,-14.95979 l 9.72975,-0.48749 -2.342,-2.66409 c -7.20638,-8.19745 -23.949,-17.52581 -42.61597,-23.74402 -14.33337,-4.77463 -36.74633,-9.58398 -36.74633,-7.88498 0,0.4866 1.52678,1.4521 3.39285,2.14557 1.86607,0.69348 5.2461,2.23103 7.51116,3.4168 l 4.1183,2.15593 -9.1183,2.30414 c -14.85844,3.75463 -26.66448,8.78514 -36.45544,15.53352 -5.48972,3.78376 -12.2865,10.60392 -14.14047,14.1891 l -1.10818,2.14299 4.86433,-0.4792 c 8.81717,-0.86862 23.79289,1.98794 23.79289,4.5384 0,0.99478 -11.70264,15.30175 -19.38829,23.70298 -10.44146,11.41364 -25.16682,24.31497 -31.47742,27.5783 -1.09528,0.5664 -1.99143,1.5037 -1.99143,2.0829 0,1.34814 -0.16314,1.37079 5.5194,-0.76621 z"
         id="path4619"
         transform="scale(0.26458333)" />
      <path
         style="fill:#fb9d1b;fill-opacity:1;stroke:#ff6600;stroke-width:0.70576137;stroke-miterlimit:4;stroke-dasharray:none"
         d="m 278.77414,577.37728 c -2.48985,-0.55697 -4.22996,-1.85211 -9.28571,-6.9112 -19.38603,-19.39886 -33.24014,-43.54196 -39.77171,-69.30885 -5.36889,-21.18016 -5.09176,-48.32685 0.69724,-68.29867 3.98484,-13.74752 9.3135,-25.52472 16.64369,-36.22894 0.70319,-1.02686 1.51408,-2.35635 2.25468,-3.36425 0.96186,-1.30901 1.82184,-2.6027 2.84907,-3.88281 0.46725,-0.58228 0.73239,-0.8793 1.12496,-1.49156 0.5646,-0.88057 1.29437,-1.76683 2.01576,-2.58596 0.34097,-0.38717 0.81919,-0.9518 1.16684,-1.33679 0.78106,-0.86496 1.52804,-1.85146 2.3419,-2.77354 1.01653,-1.15168 2.2355,-2.33765 3.34417,-3.55246 1.12568,-1.23345 2.10871,-2.12423 3.33062,-3.43351 0.76486,-0.81956 1.95306,-1.83647 2.79031,-2.66072 0.78878,-0.77653 1.60228,-1.29763 2.42656,-2.05901 6.74737,-6.23245 14.21766,-11.6437 14.76621,-11.09515 -31.10147,46.02681 -52.89938,92.12131 -40.03056,144.22497 5.85865,23.12726 19.51125,48.12788 38.036,69.65142 3.39604,3.9458 4.13714,5.1928 3.2813,5.52122 -1.47233,0.56499 -4.24813,0.42094 -7.98133,-0.41419 z"
         id="path4621"
         transform="scale(0.26458333)" />
      <path
         style="fill:#fb9d1b;fill-opacity:1;stroke:#ff6600;stroke-width:0.17644031;stroke-miterlimit:4;stroke-dasharray:none"
         d="m 282.96143,360.58053 c -0.37418,-0.53138 2.71559,-2.77544 2.46687,-2.61482 -5.47476,3.53553 0.33904,-0.47008 1.5376,-1.26002 1.05148,-0.69301 1.93347,-1.23542 1.95998,-1.20536 0.0265,0.0301 -1.08779,0.25016 -1.95998,1.20536 -0.13304,0.1457 -0.2493,0.28293 -0.35092,0.41173 -1.03583,1.3129 -3.39193,3.83464 -3.65355,3.46311 z"
         id="path4623"
         transform="scale(0.26458333)" />
      <path
         style="fill:#fb9d1b;fill-opacity:1;stroke:#ff6600;stroke-width:0.17644031;stroke-miterlimit:4;stroke-dasharray:none"
         d="m 293.17851,352.87078 c 0.27556,-0.24244 0.59699,-0.44039 0.71428,-0.4399 0.11729,4.9e-4 -0.0278,0.19849 -0.32246,0.44 -0.69937,0.57328 -1.04346,0.57318 -0.39182,-10e-5 z"
         id="path4625"
         transform="scale(0.26458333)" />
      <path
         style="fill:#fb601b;fill-opacity:1;stroke:#ff6600;stroke-width:0.70576137;stroke-miterlimit:4;stroke-dasharray:none"
         d="m 277.02542,576.15013 c -1.27202,-0.6271 -5.45059,-4.39886 -9.28571,-8.38168 -33.1301,-34.40607 -48.09685,-72.74875 -39.01757,-125.7432 3.43503,-20.04977 25.35014,-60.54219 56.74659,-83.63139 -26.19497,38.69777 -82.25492,129.67069 1.48861,218.92899 v 0 l -3.80957,-0.0163 c -2.09527,-0.009 -4.85033,-0.52935 -6.12235,-1.15645 z"
         id="path4629"
         transform="scale(0.26458333)" />
      <path
         style="fill:#fb9d1b;fill-opacity:1;stroke:#ff6600;stroke-width:0.99809724;stroke-miterlimit:4;stroke-dasharray:none;stroke-opacity:0"
         d="m 356.77134,502.15494 c -13.5784,-18.49749 -36.07985,-31.53836 -58.57464,-33.94735 l -6.6836,-0.71576 0.52712,-3.16282 c 0.28991,-1.73956 1.46335,-8.84494 2.60763,-15.78974 3.88022,-23.54945 10.52631,-51.23413 14.69407,-61.20899 l 1.55883,-3.73081 3.52322,4.94325 c 5.14718,7.22175 9.54443,16.9914 9.72881,21.61515 0.0885,2.21992 0.28282,4.03621 0.43177,4.03621 0.14895,0 2.80408,-1.62051 5.9003,-3.60114 9.72843,-6.2232 17.79564,-8.73887 29.7777,-9.28583 12.70208,-0.57983 19.70637,0.91164 32.15674,6.84732 4.63692,2.21064 8.55264,4.01935 8.70159,4.01935 0.14896,0 1.07499,-2.1592 2.05786,-4.79823 2.50761,-6.73305 7.81763,-15.30173 11.96064,-19.30069 4.09862,-3.95611 3.84739,-4.19511 8.11707,7.72222 6.09206,17.00388 10.25748,38.23426 11.37247,57.96335 0.55046,9.74028 0.41613,11.97864 -0.74029,12.33497 -0.77703,0.23944 -5.50391,1.65604 -10.50417,3.14802 -11.43329,3.41146 -23.69017,9.09446 -32.80715,15.21129 -6.84394,4.59179 -22.24616,19.58277 -22.24616,21.65218 0,0.56168 -1.77956,1.02123 -3.95458,1.02123 -3.56948,0 -4.31007,-0.48428 -7.60523,-4.97318 z m -9.65339,-35.72396 c 0,-4.95695 -3.96328,-11.87137 -8.08122,-14.09868 -2.79042,-1.50928 -4.91933,-1.81013 -10.10153,-1.42754 -6.23934,0.46064 -15.15229,3.21752 -15.15229,4.68678 0,0.37669 3.58707,1.45571 7.97127,2.39783 8.51721,1.83026 18.83574,6.43614 21.82924,9.74391 2.59059,2.86258 3.53453,2.51479 3.53453,-1.3023 z m 39.96457,0.16417 c 4.05244,-4.31253 13.76007,-8.77101 20.84203,-9.57224 6.45938,-0.73079 7.2976,-1.61724 3.08554,-3.26307 -14.37297,-5.61615 -23.75359,-2.77796 -27.00496,8.17057 -2.59744,8.74656 -1.83883,9.89648 3.07739,4.66474 z"
         id="path4631"
         transform="scale(0.26458333)" />
      <path
         style="fill:#333333;fill-opacity:1;stroke:#ff6600;stroke-width:0.35288063;stroke-miterlimit:4;stroke-dasharray:none;stroke-opacity:0"
         d="m 342.87843,464.86254 c -5.04205,-3.80052 -13.07223,-7.07845 -21.26072,-8.67868 -2.25893,-0.44144 -4.16148,-0.85045 -4.22789,-0.9089 -0.30322,-0.26687 7.92261,-2.64244 10.47053,-3.02383 8.90502,-1.33295 15.49503,3.0194 17.33456,11.44855 0.69264,3.17388 0.48787,3.27668 -2.31648,1.16286 z"
         id="path4635"
         transform="scale(0.26458333)" />
      <path
         style="fill:#333333;fill-opacity:1;stroke:#ff6600;stroke-width:0.35288063;stroke-miterlimit:4;stroke-dasharray:none;stroke-opacity:0"
         d="m 384.68656,465.46971 c 0.37597,-2.59299 1.53695,-5.71598 2.8735,-7.72957 3.17372,-4.78142 9.36091,-6.29577 17.39548,-4.25763 4.36513,1.1073 5.13749,1.50052 3.43743,1.75003 -6.75133,0.99084 -11.09066,2.27705 -14.93464,4.42673 -2.8074,1.56998 -5.80344,3.89115 -7.65485,5.93056 l -1.34995,1.48702 z"
         id="path4637"
         transform="scale(0.26458333)" />
      <path
         style="fill:#333333;fill-opacity:1;stroke:#ff6600;stroke-width:0.35288063;stroke-miterlimit:4;stroke-dasharray:none;stroke-opacity:0"
         d="m 362.57262,511.31601 c -0.75159,-1.2867 -1.31409,-2.38501 -1.25,-2.4407 0.24251,-0.21074 5.67149,-0.4328 5.56787,-0.22774 -1.84515,3.65137 -2.60489,5.03374 -2.76015,5.02215 -0.10516,-0.008 -0.80614,-1.06702 -1.55772,-2.35371 z"
         id="path4639"
         transform="scale(0.26458333)" />
      <path
         style="fill:#fb9d1b;fill-opacity:1;stroke:none;stroke-width:0;stroke-miterlimit:4;stroke-dasharray:none;stroke-opacity:0"
         d="m 360.69447,506.22373 c -0.60599,-0.36953 -2.44589,-2.41804 -4.08867,-4.55223 -7.79031,-10.12069 -17.75931,-18.5188 -28.92003,-24.36285 -10.10977,-5.29376 -19.82715,-8.2468 -30.79057,-9.35702 -2.49552,-0.25271 -4.68838,-0.55292 -4.87303,-0.66713 -0.40436,-0.25011 3.84219,-25.65182 6.21424,-37.17193 4.11598,-19.98962 8.59183,-36.64894 11.93855,-44.43587 l 0.75526,-1.75729 1.79327,2.47158 c 4.455,6.14009 8.70327,14.07344 10.31218,19.25729 0.42676,1.375 0.86595,3.70536 0.97597,5.17857 0.11003,1.47322 0.30405,2.87629 0.43117,3.11795 0.15936,0.30296 1.66938,-0.45413 4.86372,-2.43856 8.53512,-5.30231 13.78451,-7.53476 21.01132,-8.93568 4.69333,-0.9098 14.33168,-1.42072 19.27094,-1.02154 7.95495,0.64292 12.52606,2.03673 23.98123,7.31231 4.09348,1.88521 7.57106,3.29929 7.72797,3.14239 0.1569,-0.15691 1.11003,-2.29392 2.11807,-4.74893 2.06541,-5.03015 4.54131,-9.6186 7.32272,-13.5708 2.32852,-3.30865 5.47282,-6.80481 6.72052,-7.47256 0.8332,-0.44591 1.01596,-0.43028 1.64714,0.14094 5.36087,11.34057 25.35155,76.39806 12.51127,80.25564 -11.94872,3.54019 -17.09584,5.35052 -23.92857,8.41607 -9.51091,4.26714 -16.39542,8.37939 -22.42206,13.39313 -4.57989,3.81016 -15.80174,15.09195 -16.67181,16.76088 -0.78994,1.51523 -1.29648,1.70913 -4.47756,1.71398 -1.64892,0.002 -2.64062,-0.1911 -3.42324,-0.66834 z m -13.59292,-38.05099 c 0.7836,-3.31341 -1.51081,-9.60517 -4.82517,-13.23161 -2.14661,-2.34873 -4.53571,-3.67349 -7.47995,-4.14765 -4.40234,-0.70898 -14.48979,0.98464 -18.87895,3.16965 -3.42338,1.70422 -3.18532,1.88899 5.16451,4.00843 10.40588,2.64133 17.88505,5.91328 22.12977,9.68124 1.32608,1.17714 2.66932,2.09052 2.98496,2.02973 0.33474,-0.0645 0.71181,-0.69365 0.90483,-1.50979 z m 39.94683,-1.23848 c 6.08507,-5.58581 11.9959,-8.18924 23.10411,-10.17622 1.64948,-0.29505 3.17627,-0.71704 3.39285,-0.93775 0.8476,-0.86373 -2.31295,-2.44793 -7.99906,-4.00947 -3.98361,-1.09399 -10.49828,-1.0793 -13.2863,0.03 -4.36724,1.73758 -7.30729,5.76346 -9.01838,12.34908 -0.92742,3.56945 -1.09556,4.90341 -0.67151,5.32746 0.6148,0.6148 1.63674,0.0254 4.47829,-2.58306 z"
         id="path4643"
         transform="scale(0.26458333)" />
      <path
         style="fill:#fb9d1b;fill-opacity:1;stroke:#ff6600;stroke-width:0.12476214;stroke-miterlimit:4;stroke-dasharray:none;stroke-opacity:0"
         d="m 359.17696,506.18658 c -4.51512,-6.69427 -10.25597,-13.14506 -16.35488,-18.37742 -0.85121,-0.73026 -1.52056,-1.35484 -1.48746,-1.38795 0.0331,-0.0331 0.8773,0.62666 1.87598,1.46615 5.19929,4.37054 9.1115,8.49287 13.26314,13.97552 2.3939,3.16137 3.39359,4.23199 4.4217,4.73545 2.12856,1.04233 7.52854,0.58594 7.52854,-0.63628 0,-0.30035 0.81773,-1.49837 1.84949,-2.70961 1.12291,-1.31826 2.84526,-3.11289 2.91784,-3.0403 0.0314,0.0314 -0.3394,0.52937 -0.82389,1.10671 -1.06931,1.27421 -3.07914,3.9513 -3.76082,5.00939 -0.3913,0.60738 -0.57962,0.78644 -0.8771,0.83398 -0.47132,0.0753 -6.37903,0.44868 -7.07966,0.44742 -0.51328,-8.8e-4 -0.51442,-0.002 -1.47288,-1.42306 z"
         id="path4647"
         transform="scale(0.26458333)" />
      <path
         style="fill:#fb9d1b;fill-opacity:1;stroke:#ff6600;stroke-width:0.17644031;stroke-miterlimit:4;stroke-dasharray:none;stroke-opacity:0"
         d="m 359.86847,401.26182 c 0.0593,-0.0593 0.21336,-0.0657 0.34226,-0.0141 0.14246,0.057 0.10014,0.0993 -0.10788,0.10789 -0.18825,0.008 -0.29372,-0.0344 -0.23438,-0.0938 z"
         id="path4649"
         transform="scale(0.26458333)" />
      <path
         style="fill:#fb9d1b;fill-opacity:1;stroke:#ff6600;stroke-width:0.17644031;stroke-miterlimit:4;stroke-dasharray:none;stroke-opacity:0"
         d="m 360.40047,401.24662 c 0.17187,-0.0449 0.45312,-0.0449 0.625,0 0.17187,0.0449 0.0312,0.0817 -0.3125,0.0817 -0.34375,0 -0.48438,-0.0367 -0.3125,-0.0817 z"
         id="path4653"
         transform="scale(0.26458333)" />
      <path
         style="fill:#fb9d1b;fill-opacity:1;stroke:none;stroke-width:0.17644031;stroke-miterlimit:4;stroke-dasharray:none;stroke-opacity:0"
         d="m 428.22785,467.90623 c 0.0409,-0.0388 1.36012,-0.451 2.93155,-0.91589 1.57142,-0.4649 2.99393,-0.96442 3.16112,-1.11006 0.58591,-0.51037 0.73388,-2.04047 0.61756,-6.38557 -0.44392,-16.58112 -3.28954,-35.36016 -7.83368,-51.69643 -1.2998,-4.67282 -2.73354,-9.11149 -4.70095,-14.55357 -2.98634,-8.26055 -3.3832,-8.68803 -5.98967,-6.45179 -4.78583,4.10605 -10.09821,12.4464 -13.63731,21.41035 -0.76652,1.94149 -1.47576,3.58071 -1.57607,3.64271 -0.27077,0.16734 -0.0463,-0.59999 0.97189,-3.32183 2.57643,-6.88758 6.15585,-13.29179 10.31987,-18.46407 1.67979,-2.08652 4.85359,-5.33391 6.00233,-6.14149 l 0.54938,-0.38623 1.53711,3.87403 c 7.77667,19.59987 12.36163,39.23831 14.16215,60.65975 0.16785,1.99699 0.32485,6.44763 0.38162,10.81797 l 0.0964,7.42511 -3.40781,0.83382 c -3.36793,0.82405 -3.73109,0.90135 -3.58553,0.76319 z"
         id="path4655"
         transform="scale(0.26458333)" />
      <path
         style="fill:#5c843c;fill-opacity:1;stroke:#ff6600;stroke-width:0.17644031;stroke-miterlimit:4;stroke-dasharray:none;stroke-opacity:0"
         d="m 326.68755,412.63194 c 0.0565,-0.0915 1.12602,-0.84546 2.37661,-1.6755 8.53735,-5.66638 16.87309,-8.87126 26.64881,-10.2458 3.12928,-0.44 11.63164,-0.44016 14.82142,-2.8e-4 7.34481,1.01288 14.24981,3.05103 20.98215,6.19332 2.26092,1.05527 7.16845,3.80274 6.93278,3.88129 -0.0872,0.0291 -2.36926,-0.9847 -5.07123,-2.25281 -12.24896,-5.74879 -17.31114,-7.10778 -27.16164,-7.29182 -9.31444,-0.17401 -15.96037,0.65499 -22.46777,2.80258 -4.59224,1.51555 -8.26268,3.32949 -13.95098,6.89464 -2.86984,1.79867 -3.32931,2.04899 -3.11015,1.69438 z"
         id="path4659"
         transform="scale(0.26458333)" />
      <path
         style="fill:#5c843c;fill-opacity:1;stroke:#ff6600;stroke-width:0.70576137;stroke-miterlimit:4;stroke-dasharray:none;stroke-opacity:0"
         d="m 383.44322,608.59382 c -1.96011,-3.23567 -3.64468,-6.04817 -3.74349,-6.25 -0.0988,-0.20183 3.64245,-0.2605 8.31391,-0.13038 27.69059,0.77133 58.31429,-14.75001 88.75983,-44.98707 17.51522,-17.39529 41.14258,-31.81002 65.3234,-39.85289 9.97857,-3.31901 23.04279,-6.46893 26.82328,-6.46736 0.92044,3.8e-4 -4.43362,2.06052 -11.89791,4.5781 -21.659,7.30522 -38.87194,15.18981 -52.50444,24.05028 -5.31397,3.45382 -9.64052,7.31132 -19.99556,17.82782 -7.26786,7.38117 -15.14286,14.95418 -17.5,16.82889 -13.0301,10.36328 -37.17494,23.95411 -56.07143,31.56192 -6.93071,2.79034 -23.13631,8.72372 -23.82672,8.72372 -0.0644,0 -1.72075,-2.64736 -3.68087,-5.88303 z"
         id="path4661"
         transform="scale(0.26458333)" />
      <path
         style="fill:#5c843c;fill-opacity:1;stroke:#ff6600;stroke-width:0.17644031;stroke-miterlimit:4;stroke-dasharray:none;stroke-opacity:0"
         d="m 478.84367,554.83464 c 0,-0.31332 3.10797,-3.35309 5.19248,-5.07854 22.73845,-18.82178 48.65609,-31.80312 74.68518,-37.40751 2.04432,-0.44017 3.89253,-0.79498 4.10714,-0.78846 0.21461,0.007 -0.80997,0.28764 -2.27685,0.62472 -11.55953,2.65635 -21.5256,5.84258 -31.35081,10.02309 -3.58743,1.52641 -11.06839,5.15541 -14.73214,7.14653 -12.01098,6.52755 -24.80886,15.63979 -33.86601,24.11301 -1.50672,1.40958 -1.75899,1.60566 -1.75899,1.36716 z"
         id="path4663"
         transform="scale(0.26458333)" />
      <path
         style="fill:#5c843c;fill-opacity:1;stroke:#ff6600;stroke-width:0.17644031;stroke-miterlimit:4;stroke-dasharray:none;stroke-opacity:0"
         d="m 467.50934,573.89597 c 0.1937,-0.18198 1.27629,-1.16373 2.40576,-2.18166 1.12946,-1.01793 5.13766,-4.90698 8.9071,-8.64233 3.76944,-3.73536 6.82301,-6.6971 6.78571,-6.58165 -0.18563,0.57458 7.46936,10.00472 4.4432,13.02994 -3.7902,3.78905 -22.24039,4.70658 -22.74561,4.70658 -0.0816,0 0.0101,-0.14889 0.20384,-0.33088 z"
         id="path4665"
         transform="scale(0.26458333)" />
      <path
         style="fill:#5c843c;fill-opacity:1;stroke:#ff6600;stroke-width:0.17644031;stroke-miterlimit:4;stroke-dasharray:none;stroke-opacity:0"
         d="m 411.71883,605.57788 c 0.0426,-0.0426 1.12077,-0.51751 2.39583,-1.05525 14.21184,-5.99367 36.21486,-11.93263 49.07258,-20.63023 1.80402,-1.22033 -1.22958,-5.71822 -1.18547,-5.67411 0.10713,0.10713 -4.12204,3.10093 -7.59428,5.37593 -10.5952,6.94195 -22.10673,13.16893 -34.57806,18.70447 -5.7936,2.57156 -8.49528,3.66388 -8.1106,3.27919 z"
         id="path4673"
         transform="scale(0.26458333)" />
      <path
         style="fill:#5c843c;fill-opacity:1;stroke:#ff6600;stroke-width:0.17644031;stroke-miterlimit:4;stroke-dasharray:none;stroke-opacity:0"
         d="m 564.22031,513.07641 c 0.0435,-0.0435 0.71979,-0.31801 1.50297,-0.6101 2.29746,-0.85686 3.29896,-1.31106 3.29896,-1.49614 0,-0.106 -0.57232,-0.13523 -1.47321,-0.0752 -1.24044,0.0826 -1.33214,0.0719 -0.58036,-0.068 1.46739,-0.27298 5.9683,-0.85013 7.5,-0.96173 l 1.42857,-0.10409 -2.14286,0.63401 c -1.17857,0.3487 -3.752,1.11241 -5.71874,1.69713 -3.40378,1.01195 -3.99592,1.16469 -3.81533,0.98411 z"
         id="path4679"
         transform="scale(0.26458333)" />
      <path
         style="fill:#69ae44;fill-opacity:1;stroke:#ff6600;stroke-width:0.17644031;stroke-miterlimit:4;stroke-dasharray:none;stroke-opacity:0"
         d="m 379.67523,603.06967 c -0.55558,-0.83484 -1.01013,-1.56524 -1.01013,-1.62311 0,-0.0579 0.23331,-0.054 0.51847,0.009 0.28517,0.0626 1.3499,0.22069 2.36608,0.35125 l 1.84759,0.23737 -1.60714,0.0326 c -2.32479,0.0472 -2.34173,0.0613 -1.57621,1.31174 0.98644,1.61124 0.58929,1.3764 -0.53866,-0.31853 z"
         id="path4681"
         transform="scale(0.26458333)" />
      <path
         id="path4683"
         transform="scale(0.26458333)"
         style="fill:#69ae44;fill-opacity:1;stroke:#ff6600;stroke-width:0.70576137;stroke-miterlimit:4;stroke-dasharray:none;stroke-opacity:0"
         d="m 343.62938,636.80139 c -35.89541,-4.37153 -69.25163,-18.53355 -97.85714,-41.54712 -18.98561,-15.27422 -39.53647,-39.15572 -54.30077,-63.10119 l -4.18248,-6.78337 1.78145,-1.60714 c 0.97981,-0.88393 2.2978,-1.60715 2.92887,-1.60715 2.31412,0 7.40339,3.72454 10.76336,7.87708 3.42925,4.23816 19.26205,18.18834 30.86671,27.19648 6.57976,5.10755 17.51034,12.21929 23.21429,15.10386 3.65812,1.84996 11.07143,4.31244 11.07143,3.67759 0,-0.19454 -3.45536,-4.12439 -7.67858,-8.73301 -16.81162,-18.34582 -27.31737,-31.07881 -29.5603,-35.82718 -2.59012,-5.48338 -8.29417,-23.64635 -9.27007,-29.51799 -0.96749,-5.82109 -0.57069,-7.76216 1.67738,-8.20536 1.61821,-0.31903 3.26466,1.68614 4.16103,5.06758 7.9184,29.87119 21.17895,53.22413 41.764,73.54993 6.16008,6.0825 8.42257,7.1345 15.42242,7.17102 2.73609,0.0143 4.78464,-0.42802 6.42817,-1.3879 2.51172,-1.46692 5.5953,-6.06859 5.61562,-8.38027 0.006,-0.74709 -4.33715,-5.94585 -9.84732,-11.78571 -23.62047,-25.03377 -29.3617,-31.96812 -31.00283,-37.44573 -0.88244,-2.94531 -0.43421,-4.39812 1.78974,-5.80095 0.94889,-0.59855 1.58942,-0.30277 3.16655,1.46221 7.36325,8.24028 29.46589,22.41132 53.04847,34.01188 26.82561,13.19584 47.55663,29.20862 58.53917,45.21605 2.14297,3.12345 4.74706,6.39328 4.74706,6.39328 2.75962,1.27139 4.55283,1.9312 6.60833,5.27049 2.05549,3.33928 3.11195,8.35436 3.11195,8.35436 0.96335,0.65217 -3.53554,-2.02031 -0.70976,-1.87882 2.35169,0.11775 8.36212,-1.86817 13.72669,-3.74502 12.06601,-4.22141 43.64243,-18.54367 61.33914,-32.35225 2.75591,-2.15041 16.50227,-13.99785 23.77013,-21.37231 10.33736,-10.489 19.48984,-16.38897 24.79822,-19.8404 14.48073,-9.41517 34.24181,-17.07754 57.17922,-24.15632 2.03661,-0.62852 4.58931,-1.71866 7.15375,-2.16971 5.24683,-0.92283 10.54281,-0.87721 11.56842,-0.68384 1.24641,0.235 -5.72099,1.86652 -9.06446,3.05752 -1.09565,0.39029 -3.01882,1.0839 -4.16001,1.54346 -22.65133,9.12166 -53.27864,31.11626 -74.67928,53.93232 -33.51484,35.73149 -66.98769,58.63123 -96.71377,66.16471 -15.15425,3.84055 -39.32992,5.05699 -57.2148,2.87888 z" />
      <path
         style="fill:#69ae44;fill-opacity:1;stroke:#ff6600;stroke-width:0.70576137;stroke-miterlimit:4;stroke-dasharray:none;stroke-opacity:0"
         d="m 239.34367,555.6901 c -5.30357,-3.90246 -12.94726,-9.71463 -16.98598,-12.91593 -6.70954,-5.31835 -7.55966,-6.27077 -9.85286,-11.03853 -3.24307,-6.74262 -5.95343,-17.50986 -6.45491,-25.64288 -0.25135,-4.07634 -0.93813,-7.74722 -1.87252,-10.00876 -3.0161,-7.29993 -2.86753,-9.64286 0.61146,-9.64286 2.24686,0 5.38029,2.87035 7.53808,6.9052 1.01533,1.89857 3.36635,8.91623 5.22448,15.5948 1.85813,6.67857 4.03797,13.91071 4.8441,16.07143 1.45187,3.89156 7.72595,12.68093 21.03235,29.46428 3.65977,4.61607 6.40765,8.37391 6.10639,8.35075 -0.30125,-0.0232 -4.88702,-3.23504 -10.19059,-7.1375 z"
         id="path4685"
         transform="scale(0.26458333)" />
      <path
         style="fill:#69ae44;fill-opacity:1;stroke:#ff6600;stroke-width:0.06601997;stroke-miterlimit:4;stroke-dasharray:none;stroke-opacity:0"
         d="m 128.70089,147.22693 c 0,-0.14036 1.91629,-2.04033 2.68512,-2.66225 0.43589,-0.3526 0.80632,-0.6273 0.82318,-0.61044 0.0169,0.0169 -0.23191,0.25724 -0.55282,0.5342 -0.3209,0.27695 -1.11717,1.02205 -1.76947,1.65577 -0.65231,0.63371 -1.18601,1.12094 -1.18601,1.08272 z"
         id="path4687" />
    </g>
    <g
       id="g5811">
      <path
         id="path4827"
         d="m 125.8347,124.00573 c -3.31099,-0.38488 -7.91071,-1.59664 -11.49629,-3.02861 -10.93412,-4.36675 -20.76999,-12.82875 -29.09796,-25.03364 -2.72199,-3.98915 -2.79944,-4.48519 -0.70032,-4.48519 0.9676,0 1.3518,0.25385 2.95912,1.95516 2.25445,2.38628 11.21612,9.83709 12.91209,10.73522 1.56112,0.82671 4.54876,2.0733 4.67248,1.94958 0.0518,-0.0518 -1.05288,-1.25767 -2.45477,-2.6798 -1.40189,-1.42213 -3.68998,-3.96449 -5.08464,-5.64967 -2.33668,-2.82346 -2.60592,-3.29392 -3.42995,-5.99351 -1.0565,-3.46115 -2.0226,-8.23632 -1.72631,-8.53261 0.11494,-0.11495 0.62296,-0.0527 1.12893,0.13825 l 0.91995,0.34724 -0.23916,-1.12952 c -0.43245,-2.04242 -0.21958,-11.38958 0.31271,-13.731261 2.36751,-10.415178 7.9429,-18.584745 16.75367,-24.549026 9.51742,-6.44264 23.21365,-8.063125 34.08916,-4.033303 9.93998,3.683171 17.75849,10.922838 22.02151,20.391149 1.41437,3.141348 2.14996,5.480338 2.95691,9.402195 0.9205,4.473696 1.26658,4.047676 -3.454,4.251826 -2.23988,0.0969 -5.55765,0.41897 -7.37281,0.71579 -1.81517,0.29682 -3.3792,0.46078 -3.47562,0.36435 -0.0964,-0.0964 -0.44737,-2.09213 -0.77986,-4.4349 -1.25491,-8.842123 -4.75582,-20.62378 -6.30498,-21.218247 -0.52816,-0.202676 -2.09447,1.261526 -4.33566,4.053016 -2.78366,3.467162 -2.57067,3.289222 -3.75338,3.135613 -0.60619,-0.07873 -2.27781,-0.367528 -3.71471,-0.641772 -1.43691,-0.274245 -3.48283,-0.498814 -4.54651,-0.499045 -2.08995,-3.07e-4 -6.05899,0.721895 -7.67497,1.396817 l -1.00287,0.418851 -1.22093,-1.599603 c -0.67151,-0.879783 -1.6725,-2.208061 -2.22441,-2.951735 -1.62242,-2.186128 -3.0452,-3.719298 -3.45149,-3.719298 -0.20826,0 -0.60719,0.581791 -0.88651,1.29287 -1.01334,2.579726 -6.36799,25.223373 -6.35317,26.866173 0.005,0.51667 0.40079,0.79384 1.92687,1.34826 6.03486,2.19242 12.1254,6.00318 19.11982,11.96298 1.00697,0.85802 1.95833,1.56003 2.11414,1.56003 0.15581,0 1.20927,-0.87352 2.34102,-1.94116 7.32627,-6.91123 14.54144,-11.36892 21.68369,-13.39665 11.37126,-3.22838 23.00336,-1.44895 33.10229,5.06385 2.08943,1.34748 2.99659,2.0668 5.41106,4.29063 l 1.34588,1.23961 -2.25645,0.81404 c -4.68392,1.68977 -9.18887,3.93632 -13.01403,6.4899 -3.35561,2.24012 -5.54901,4.25729 -10.43197,9.59378 -5.90045,6.44848 -8.90314,9.14685 -13.55504,12.18125 -4.23815,2.7645 -9.79687,5.2168 -14.20984,6.26883 -5.21881,1.24415 -12.13685,1.64736 -17.52269,1.02129 z m 28.28415,-19.98308 c 1.84887,-0.94322 4.12309,-2.45484 8.99383,-5.97798 11.49157,-8.31216 17.5234,-10.86045 26.97079,-11.39446 1.98631,-0.11228 3.61147,-0.28707 3.61147,-0.38842 0,-0.71873 -5.24154,-4.34185 -8.45238,-5.84256 -2.74966,-1.28516 -7.46428,-2.91079 -9.83551,-3.39134 -2.04812,-0.41508 -4.46956,-0.33387 -3.38095,0.11338 0.3381,0.1389 1.21859,0.53262 1.95664,0.87491 1.59064,0.73771 1.57957,0.74717 -2.4526,2.09755 -1.58675,0.5314 -4.1298,1.58854 -5.65123,2.34919 -2.65809,1.32894 -6.68899,4.27323 -7.01563,5.12443 -0.12143,0.31645 0.5038,0.44342 2.76633,0.56176 2.6221,0.13716 3.00448,0.23417 3.71211,0.9418 0.77714,0.77714 0.78073,0.80179 0.24088,1.65497 -0.30141,0.47635 -3.51097,3.80521 -7.13236,7.39747 -3.62139,3.59228 -6.36504,6.5314 -6.09698,6.5314 0.26805,0 1.06257,-0.29344 1.76559,-0.6521 z m -53.24387,-0.32148 c -1.4878,-0.85309 -3.53855,-2.4622 -9.03383,-7.08836 -1.99568,-1.68004 -2.76227,-3.48344 -3.5629,-8.3818 -0.35921,-2.19762 -0.80816,-4.5203 -0.99769,-5.16151 -0.80032,-2.70769 1.93554,-2.24697 3.16526,0.53303 0.32811,0.74175 1.16187,3.19309 1.85279,5.44743 1.08832,3.55097 1.48471,4.40691 2.96577,6.404 1.95137,2.63126 4.46445,5.63374 6.49584,7.76083 0.76685,0.80298 1.26115,1.45866 1.09846,1.45708 -0.16269,-0.002 -1.05535,-0.4384 -1.9837,-0.9707 z m 30.21639,-16.58492 c -2.66884,-4.50172 -5.26679,-6.79059 -9.695,-8.54157 -2.02927,-0.8024 -3.33995,-1.096 -8.07591,-1.80905 -2.04367,-0.3077 -2.18606,0.92569 1.68835,-14.624917 1.34295,-5.390137 2.51437,-9.872894 2.60315,-9.961684 0.50759,-0.507583 3.91182,4.558137 4.32387,6.4342 0.27619,1.257454 0.57797,1.317038 2.37656,0.46924 3.31585,-1.562997 5.37159,-2.048677 8.65299,-2.044325 2.60789,0.0034 3.49914,0.143165 5.61747,0.880548 1.38478,0.482041 2.96701,1.160863 3.51605,1.508493 l 0.99826,0.632054 1.44771,-2.972559 c 0.79624,-1.63491 1.87376,-3.454465 2.39449,-4.043458 0.82947,-0.938193 1.00009,-1.014369 1.37688,-0.614719 0.80331,0.85205 2.96869,8.566531 4.22598,15.055749 0.52667,2.71825 1.15619,8.455698 0.9475,8.635438 -0.1169,0.10068 -1.29137,0.41253 -2.60993,0.69301 -3.12248,0.6642 -7.42994,2.33952 -9.62428,3.74323 -3.07946,1.96991 -5.13091,4.18528 -7.60528,8.21296 -0.2856,0.46488 -0.64498,0.84524 -0.79863,0.84524 -0.15365,0 -0.94575,-1.12405 -1.76023,-2.49788 z"
         style="fill:#f4ac2a;stroke-width:0.3073594" />
      <path
         style="fill:#65a143;stroke-width:1.16167331"
         d="M 466.44922 270.91797 C 461.94036 270.91797 450.80469 274.35016 450.80469 275.74023 C 450.80469 276.28211 451.901 276.72656 453.24023 276.72656 C 457.71867 276.72656 467.57951 280.19914 474.61914 284.25586 C 484.55869 289.98366 484.90631 289.81632 480.59961 281.37305 C 477.44076 275.18006 471.67249 270.91797 466.44922 270.91797 z M 539.44922 271.57812 C 534.10825 271.50823 532.94958 271.95279 529.33008 275.45898 C 525.36131 279.30352 521.66602 285.51331 521.66602 288.3418 C 521.66602 289.19083 523.13639 288.75242 525.44141 287.2168 C 532.56136 282.47357 542.76203 278.08087 548.47656 277.29492 C 551.62136 276.86239 554.19336 276.07432 554.19336 275.54492 C 554.19336 273.91708 545.80733 271.66127 539.44922 271.57812 z M 332.32812 307.89258 C 329.83556 307.75772 328.31648 309.92361 329.73438 314.7207 C 330.45069 317.14417 332.14629 325.92255 333.50391 334.22852 C 336.52994 352.742 339.42796 359.55845 346.9707 365.9082 C 367.74026 383.39288 375.49011 389.47494 381.11328 392.69922 C 384.62193 394.71106 387.99644 396.35963 388.61133 396.36719 C 389.22622 396.37319 387.35927 393.89425 384.46094 390.85938 C 376.7833 382.81998 367.28344 371.47226 359.9082 361.52734 C 354.31049 353.97929 352.81255 350.74521 348.69922 337.32422 C 346.08786 328.80388 342.93736 319.53783 341.69727 316.73438 C 339.22813 311.15249 335.15304 308.04541 332.32812 307.89258 z M 350.72266 315.06055 C 348.05348 315.06055 348.05997 315.77766 350.82227 329.16406 C 355.45676 351.62326 358.02743 357.59102 368.55078 370.30664 C 373.80823 376.65927 382.44566 386.25588 387.74414 391.63086 C 393.04262 397.00584 397.21726 401.56203 397.02148 401.75781 C 396.55388 402.22542 385.26155 397.5152 379.36133 394.39062 C 372.95137 390.99613 339.08131 362.83542 330.56055 353.81641 C 324.48563 347.38626 323.03402 346.42578 319.37695 346.42578 C 311.44325 346.42578 311.7356 348.3018 322.02344 363.37891 C 353.49926 409.5076 390.67419 441.48989 432 457.99414 C 445.5518 463.40631 462.93524 467.98479 475.44922 469.43945 C 495.80515 471.8057 521.9531 470.28238 541.67773 465.58008 C 558.35668 461.6039 579.36656 452.33522 595.38477 441.88672 C 612.96675 430.41812 624.31432 420.21986 646.61523 395.84766 C 665.07052 375.67827 673.36035 368.05449 686.04297 359.58789 C 699.97159 350.28953 717.63307 341.38965 733.67188 335.58789 L 740.64258 333.06641 L 734.83398 332.69336 C 722.73651 331.91508 695.42243 337.52283 680.81641 343.7832 C 672.57692 347.31479 662.88757 352.63384 652.93555 359.08984 C 646.84397 363.04149 616.98588 386.53264 615.75977 388.33789 C 615.43832 388.81116 608.1195 394.46501 599.49609 400.90234 C 572.97526 420.69992 550.94673 429.64846 527.02148 430.3457 L 516.69141 430.64648 L 511.33789 424.29102 C 503.95209 415.52119 492.1295 404.07862 484.49414 398.3125 C 480.98009 395.65874 477.84281 393.18932 477.52344 392.82422 C 477.20395 392.45931 472.23857 389.3687 466.48828 385.95703 C 460.73799 382.5454 455.24744 379.1094 454.28906 378.32031 C 453.33069 377.53121 447.84208 374.28133 442.0918 371.09961 C 421.92707 359.94218 419.96981 358.82108 413.63086 354.79883 C 406.12237 350.03447 393.46946 340.51079 392.91406 339.20508 C 392.19909 337.52428 388.00896 338.27469 387.26367 340.2168 C 385.91268 343.73746 389.23269 352.40499 394.69531 359.62109 C 397.66561 363.54485 406.80144 373.3469 414.99609 381.4043 C 423.19079 389.46164 429.89453 396.86504 429.89453 397.85547 C 429.89453 398.84593 428.28608 401.00995 426.32031 402.66406 C 423.37606 405.14147 421.56237 405.67188 416.02344 405.67188 L 409.29883 405.67188 L 399.73047 396.08789 C 391.62705 387.97166 378.51355 371.6988 373.2793 363.26172 C 367.4414 353.85172 361.0726 337.55764 358.93164 326.55664 C 357.4364 318.8735 354.71349 315.06055 350.72266 315.06055 z M 501.84961 330.16211 C 496.69328 330.16211 496.00689 331.7972 499.14844 336.5918 C 501.60819 340.34593 502.65694 340.20749 505.35938 335.76367 C 508.18124 331.12347 507.58024 330.16211 501.84961 330.16211 z "
         transform="scale(0.26458333)"
         id="path5745" />
      <path
         style="fill:#567242;stroke-width:1.16167331"
         d="M 465.67383 270.99414 C 461.59746 271.11138 449.98561 275.24943 451.9668 275.87891 C 452.92521 276.18338 456.5836 277.09279 460.09766 277.89844 C 466.53578 279.37453 474.97115 283.14687 479.26562 286.4707 C 481.45208 288.1631 483.33203 288.84136 483.33203 287.93945 C 483.33203 287.71816 482.47367 285.75865 481.42383 283.58398 C 477.78244 276.04126 471.26681 270.83313 465.67383 270.99414 z M 538.50977 271.48633 C 534.91688 271.57287 532.19599 272.68648 529.92188 274.86523 C 527.05057 277.61613 521.66602 286.73243 521.66602 288.84375 C 521.66602 289.13345 524.4113 287.55691 527.76562 285.33984 C 533.9659 281.2417 546.36243 276.72656 551.41211 276.72656 C 556.01436 276.72656 554.55472 274.80705 548.67578 273.12891 C 544.62607 271.97291 541.30423 271.41901 538.50977 271.48633 z M 337.30859 311.6875 C 337.15571 311.72319 337.27243 312.17271 337.61719 313.07812 C 338.05343 314.22362 338.70289 314.86926 339.06055 314.51172 C 339.41821 314.15402 339.06149 313.21573 338.26758 312.42773 C 337.83734 312.00071 337.54889 311.75331 337.39062 311.69727 C 337.35765 311.68559 337.33043 311.6824 337.30859 311.6875 z M 350.69922 315.06055 C 349.39645 315.06055 349.49257 318.44697 350.99805 325.4668 C 351.72356 328.8497 352.75289 331.03578 353.42383 330.62109 C 354.06452 330.22515 354.3229 328.88483 353.99805 327.64258 C 353.51581 325.79851 353.71054 325.63513 355.05859 326.75391 C 355.96671 327.50758 356.70898 328.93132 356.70898 329.91797 C 356.70898 330.90443 356.36913 331.37109 355.95312 330.95508 C 355.53711 330.53907 354.58037 331.04279 353.82617 332.07422 C 352.29943 334.16214 353.94092 344.10352 355.8125 344.10352 C 356.38147 344.10352 356.55801 344.56955 356.20508 345.14062 C 355.31894 346.57439 358.7812 354.55859 360.28906 354.55859 C 360.96685 354.55859 361.19769 355.55115 360.80664 356.7832 C 360.41549 358.01559 360.73896 359.4029 361.53125 359.89258 C 362.32609 360.38384 363.16478 360.16977 363.41797 359.41016 C 364.13196 357.26818 367.16652 357.81031 367.14648 360.07617 C 367.13156 361.78233 366.95434 361.83341 366.04688 360.39844 C 365.1262 358.94264 364.84701 358.99804 364.16797 360.76758 C 363.71573 361.94611 364.01464 363.44159 364.85742 364.2207 C 366.0226 365.2976 366.14173 365.24192 365.41211 363.96289 C 364.80233 362.89412 364.92609 362.60642 365.77148 363.12891 C 366.48119 363.56756 366.76813 364.69293 366.4082 365.63086 C 366.04828 366.56879 366.27709 367.33594 366.91602 367.33594 C 367.55493 367.33594 368.40769 366.47757 368.81055 365.42773 C 369.21341 364.37786 369.86625 363.84279 370.26172 364.23828 C 370.65719 364.63373 370.33053 365.73932 369.53711 366.69531 C 368.37652 368.09374 368.43102 368.76889 369.81445 370.15234 C 370.76022 371.09832 371.94213 371.50538 372.43945 371.05664 C 372.93676 370.60786 373.00379 371.18266 372.58984 372.33398 C 372.13808 373.59037 372.29989 374.14194 372.99414 373.71289 C 373.63025 373.31974 374.48834 373.9449 374.90039 375.10352 C 375.31246 376.26213 376.4385 378.12797 377.40234 379.25 C 378.36617 380.3721 379.415 381.02835 379.73438 380.70898 C 380.05381 380.3895 379.4357 379.15618 378.35938 377.9668 C 377.28301 376.77744 376.70987 375.00148 377.08594 374.02148 C 377.48046 372.99338 375.62785 368.86831 372.70703 364.26953 C 366.71785 354.83961 356.70898 328.56021 356.70898 322.26367 C 356.70898 320.32712 352.3155 315.06055 350.69922 315.06055 z M 501.91797 331.32422 C 496.62338 331.32422 496.2916 332.08787 499.69922 336.41992 L 502.12695 339.50586 L 504.3457 336.68359 C 507.63246 332.50521 507.09694 331.32422 501.91797 331.32422 z M 717.81445 335.13867 C 717.20397 335.16116 715.9308 335.2957 713.92383 335.52148 C 704.61205 336.56909 684.61881 342.70734 677.38672 346.73828 C 675.18129 347.96753 672.49827 349.14287 671.42383 349.34961 C 669.21265 349.77545 650.96823 361.00638 648.53516 363.43945 C 647.66095 364.3137 645.96009 365.55473 644.75586 366.19922 C 643.38737 366.93158 642.8104 368.12727 643.21484 369.38672 C 643.7662 371.10372 643.67114 371.14464 642.57031 369.66016 C 641.46318 368.16721 640.87182 368.37423 638.44922 371.11133 C 636.89406 372.86835 635.20517 374.32498 634.69531 374.34766 C 634.18549 374.37064 632.19995 375.67494 630.2832 377.24609 C 627.53908 379.49545 627.24568 380.1056 628.90039 380.10938 C 630.094 380.11265 630.66999 380.65062 630.23438 381.35547 C 629.81258 382.03779 628.70163 382.30241 627.76562 381.94336 C 625.30282 380.99829 616.43145 388.33931 618.35742 389.72852 C 619.3748 390.46212 619.16707 390.57428 617.6875 390.09375 C 616.22649 389.61923 613.9462 390.81077 610.49609 393.84766 C 594.46137 407.96196 569.23285 422.42512 552.34766 427.18555 C 541.02139 430.37872 527.18091 432.47106 522.43359 431.70703 C 518.25264 431.03416 518.04868 431.13437 519.20703 433.29883 C 519.88689 434.56909 521.89604 435.99312 523.66992 436.46484 C 525.44479 436.93657 526.24472 437.56136 525.45117 437.85352 C 524.40107 438.24027 524.3326 438.99227 525.20117 440.61523 C 526.77262 443.55144 532.05426 443.51854 540.25391 440.52148 C 543.74993 439.24363 547.53303 438.19727 548.66016 438.19727 C 549.78729 438.19727 550.70898 437.80132 550.70898 437.31641 C 550.70898 436.83149 554.0533 435.23538 558.14062 433.76953 C 562.22796 432.30364 568.51134 429.33496 572.10352 427.17188 C 575.69573 425.00878 579.64746 422.91812 580.88477 422.52539 C 582.12203 422.1327 584.40469 420.29838 585.95898 418.45117 C 587.51328 416.604 589.02425 415.33284 589.31641 415.625 C 590.24043 416.54906 598.30367 409.51263 597.42969 408.54492 C 596.97093 408.03707 597.22336 407.98264 597.99219 408.42383 C 599.4224 409.24451 602.02299 407.53985 607.94336 401.89648 C 609.7866 400.13946 611.54177 398.70117 611.84375 398.70117 C 612.49613 398.70117 629.51592 385.13473 635.98828 379.45508 C 638.4867 377.26264 641.23006 375.46875 642.08594 375.46875 C 642.94185 375.46875 643.64258 375.06973 643.64258 374.58398 C 643.64258 372.97032 667.39053 355.77145 672.88672 353.4043 C 674.37264 352.76435 676.3717 351.75269 677.33008 351.1582 C 680.9681 348.90149 691.79183 344.10352 693.24219 344.10352 C 694.07512 344.10352 694.75586 343.58034 694.75586 342.94141 C 694.75586 342.30248 696.09349 341.7793 697.72852 341.7793 C 699.41453 341.7793 700.39153 341.27603 699.98438 340.61719 C 699.58741 339.97489 700.4278 339.45508 701.86523 339.45508 C 703.29514 339.45508 706.07106 338.96216 708.0332 338.35938 C 709.99531 337.75658 713.42978 336.7251 715.66602 336.06641 C 718.00748 335.37674 718.83192 335.10119 717.81445 335.13867 z M 355.89453 362.80078 C 355.74164 362.83647 355.85837 363.28598 356.20312 364.19141 C 356.63937 365.33691 357.28883 365.98254 357.64648 365.625 C 358.00415 365.26734 357.64743 364.32905 356.85352 363.54102 C 356.42328 363.11399 356.13483 362.86659 355.97656 362.81055 C 355.94359 362.79887 355.91637 362.79568 355.89453 362.80078 z M 378.99414 374.85547 C 378.85755 374.8835 378.78125 374.99478 378.78125 375.19531 C 378.78125 375.90828 379.35032 376.84416 380.04492 377.27344 C 380.74032 377.70272 381.03579 379.08847 380.70508 380.35352 C 380.04861 382.86388 387.80045 391.622 397.33008 399.13672 C 400.1846 401.38769 402.79851 402.923 403.13867 402.54883 C 403.47875 402.1745 403.09949 401.63414 402.29688 401.34766 C 401.49308 401.06109 401.14095 400.33455 401.51172 399.73438 C 401.88272 399.13415 401.75519 398.71908 401.22852 398.81055 C 398.61671 399.26428 397.18379 398.53373 397.75586 397.04297 C 398.49619 395.11367 395.67742 392.36436 394.01367 393.39258 C 393.39092 393.77749 392.50337 393.48047 392.04102 392.73242 C 391.51604 391.88294 391.70343 391.68349 392.54102 392.20117 C 394.68219 393.5245 394.09134 391.11749 391.75586 389.00391 C 390.58591 387.94507 389.23451 387.47253 388.75391 387.95312 C 388.27489 388.43369 388.05479 388.04236 388.26758 387.08398 C 388.50554 386.01306 387.93135 385.46059 386.77734 385.64844 C 385.74447 385.81663 384.24181 385.16215 383.43945 384.19531 C 382.56438 383.14086 382.46533 382.4375 383.18945 382.4375 C 383.85336 382.4375 384.62871 383.09198 384.91406 383.89062 C 385.1993 384.68928 385.82756 384.97417 386.31055 384.52539 C 386.79357 384.07665 386.40564 382.92712 385.44727 381.96875 C 384.48889 381.01196 383.29809 380.59223 382.80078 381.04102 C 382.30377 381.48976 382.16494 381.07361 382.49414 380.11523 C 382.82319 379.15686 382.12314 377.36665 380.9375 376.13672 C 380.19648 375.36794 379.5388 374.91335 379.15039 374.85547 C 379.09213 374.84679 379.03967 374.84613 378.99414 374.85547 z M 377.25977 385.94141 C 376.42846 385.9521 376.57214 386.40734 377.61914 387.08398 C 379.85087 388.52621 380.25269 388.52621 379.36133 387.08398 C 378.96644 386.44506 378.02069 385.93385 377.25977 385.94141 z "
         transform="scale(0.26458333)"
         id="path5802" />
    </g>
  </g>
</svg>
